# xmcd
#
# Track frame offsets: 
#        150
#        18400
#        36047
#        50917
#        68335
#        82135
#        94857
#        111002
#        127462
#        145735
#        161917
#        179137
#
# Disc length: 2588 seconds
#
# Revision: 4
# Processed by: cddbd v1.5.2PL0 Copyright (c) Steve Scherf et al.
# Submitted via: ExactAudioCopy v1.3
#
DISCID=b10a1a0c
DTITLE=Nas - The Lost Tapes
DYEAR=2002
DGENRE=Hip-Hop
TTITLE0=Doo Rags
TTITLE1=My Way
TTITLE2=U Gotta Love It
TTITLE3=Nothing Last Forever
TTITLE4=No Idea's Original
TTITLE5=Blaze A 50
TTITLE6=Everybody's Crazy
TTITLE7=Purple
TTITLE8=Drunk By Myself
TTITLE9=Black Zombie
TTITLE10=Poppa Was A Playa
TTITLE11=Fetus
EXTD=
EXTT0=
EXTT1=
EXTT2=
EXTT3=
EXTT4=
EXTT5=
EXTT6=
EXTT7=
EXTT8=
EXTT9=
EXTT10=
EXTT11=
PLAYORDER=
